<svg width="37" height="37" viewBox="0 0 37 37" fill="none" xmlns="http://www.w3.org/2000/svg">
<path d="M18.5 0.526611C13.7348 0.532037 9.16637 2.4274 5.79688 5.79688C2.4274 9.16637 0.532037 13.7348 0.526611 18.5C0.526611 23.3021 2.39724 27.8147 5.79255 31.2074C7.45705 32.8821 9.4373 34.2098 11.6186 35.1138C13.7999 36.0177 16.1388 36.4798 18.5 36.4734C23.2652 36.4679 27.8336 34.5726 31.2031 31.2031C34.5726 27.8336 36.4679 23.2652 36.4734 18.5C36.4679 13.7348 34.5726 9.16637 31.2031 5.79688C27.8336 2.4274 23.2652 0.532037 18.5 0.526611ZM18.5 3.08911C22.5857 3.09386 26.5028 4.71902 29.3919 7.6081C32.2809 10.4972 33.9061 14.4142 33.9109 18.5C33.9074 22.3748 32.437 26.1047 29.7955 28.9396C28.0517 26.8753 25.7812 25.3221 23.2252 24.445C24.1126 23.7254 24.8283 22.817 25.3203 21.7859C25.8124 20.7549 26.0684 19.6271 26.0696 18.4846C26.0666 17.4743 25.8643 16.4746 25.4743 15.5427C25.0842 14.6107 24.5142 13.7649 23.7967 13.0536C23.0793 12.3424 22.2285 11.7796 21.2932 11.3977C20.3579 11.0158 19.3565 10.8221 18.3462 10.8279C17.3364 10.8309 16.3371 11.033 15.4055 11.4227C14.4739 11.8124 13.6283 12.382 12.9171 13.099C12.2059 13.8159 11.6431 14.666 11.2608 15.6007C10.8786 16.5354 10.6844 17.5363 10.6895 18.5461C10.6895 20.9267 11.8067 23.0305 13.5185 24.4347C11.0145 25.2881 8.7812 26.7894 7.04561 28.7859C4.49344 25.9686 3.08281 22.3014 3.08911 18.5C3.09386 14.4142 4.71902 10.4972 7.6081 7.6081C10.4972 4.71902 14.4142 3.09386 18.5 3.08911ZM18.4103 13.3904C21.2214 13.3904 23.5045 15.6761 23.5045 18.5461C23.5013 19.8662 22.9857 21.1334 22.0665 22.0808C21.1473 23.0282 19.8962 23.5818 18.5769 23.625C18.5025 23.625 18.4308 23.6096 18.3565 23.6096C18.2924 23.6096 18.2309 23.6224 18.1669 23.625C16.8413 23.5731 15.5879 23.0078 14.6716 22.0485C13.7554 21.0892 13.2481 19.8111 13.2571 18.4846C13.2571 15.6761 15.5403 13.3904 18.4103 13.3904ZM18.1643 26.1824C18.2258 26.1849 18.2873 26.2029 18.3488 26.2029H18.4103C18.4667 26.2029 18.5128 26.1849 18.5692 26.1824C20.3568 26.2136 22.1166 26.631 23.7279 27.4059C25.3392 28.1808 26.7639 29.2949 27.9044 30.6719C25.2185 32.7701 21.9083 33.9102 18.5 33.9109C15.0144 33.9179 11.6312 32.7335 8.91111 30.554C10.0545 29.2099 11.4711 28.1249 13.0666 27.3711C14.6621 26.6173 16.3999 26.2121 18.1643 26.1824Z" fill="#16051F"/>
</svg>
